<?xml version="1.0" encoding="UTF-8"?>
<svg width="48px" height="48px" viewBox="0 0 48 48" version="1.1" xmlns="http://www.w3.org/2000/svg" xmlns:xlink="http://www.w3.org/1999/xlink">
    <title>icon-mail</title>
    <g id="Page-6" stroke="none" stroke-width="1" fill="none" fill-rule="evenodd">
        <g id="MIWO-Copy" transform="translate(-1032.000000, -4759.000000)" fill="#FDFDFD" fill-rule="nonzero">
            <g id="Group-4" transform="translate(1031.000000, 4616.000000)">
                <path d="M25,143 C38.254,143 49,153.746 49,167 C49,180.254 38.254,191 25,191 C11.746,191 1,180.254 1,167 C1,153.746 11.746,143 25,143 Z M25.6315789,153.105263 C24.1318692,153.105263 22.8030786,153.749123 21.324873,154.906244 L21.324873,154.906244 L19.7719602,156.181188 L13.6504513,161.099272 L13.4926976,161.237059 C12.7781134,161.899726 12.3684211,162.832355 12.3684211,163.81303 L12.3684211,163.81303 L12.3684211,176.118421 L12.3736193,176.31118 C12.4736879,178.161811 14.0059758,179.631579 15.8815789,179.631579 L15.8815789,179.631579 L35.3815789,179.631579 L35.5743375,179.626381 C37.424969,179.526312 38.8947368,177.994024 38.8947368,176.118421 L38.8947368,176.118421 L38.8947368,163.814155 L38.8877138,163.591967 C38.8317122,162.707293 38.4429861,161.876233 37.8003808,161.266272 L37.8003808,161.266272 L37.5938693,161.08505 L31.2374196,155.978266 L30.2345997,155.143714 L29.9163657,154.887311 L29.6433779,154.679103 C28.2855863,153.667813 27.0295933,153.105263 25.6315789,153.105263 Z M25.6315789,155.631579 C26.3618257,155.631579 27.1575759,155.985344 28.101373,156.681038 L28.101373,156.681038 L28.4502745,156.948875 L29.6867324,157.973503 L36.0104624,163.053663 L36.1016675,163.139364 C36.2719761,163.321076 36.3684211,163.561981 36.3684211,163.814155 L36.3684211,163.814155 L36.3684211,176.118421 L36.3617821,176.233511 C36.3047789,176.724316 35.8876814,177.105263 35.3815789,177.105263 L35.3815789,177.105263 L15.8815789,177.105263 L15.7664894,177.098624 C15.2756841,177.041621 14.8947368,176.624524 14.8947368,176.118421 L14.8947368,176.118421 L14.8947368,163.81303 L14.9027203,163.687709 C14.934443,163.439855 15.0594321,163.211417 15.2548698,163.050711 L15.2548698,163.050711 L21.6919943,157.87825 L22.6919667,157.048385 L22.8820827,156.895558 L23.1090549,156.721919 C24.0798455,155.997109 24.8873801,155.631579 25.6315789,155.631579 Z M33.1667821,166.17014 C32.9709852,165.932343 32.6204071,165.896249 32.3803133,166.089187 L32.3803133,166.089187 L31.9057187,166.470501 C30.7201165,167.422902 29.5687481,168.346441 29.0726727,168.740812 C28.2212352,169.420921 26.7379227,170.868421 25.6315789,170.868421 C24.5209696,170.868421 23.0132821,169.397999 22.1904852,168.740812 C21.6282664,168.293812 20.2244539,167.167218 18.8829852,166.089046 C18.6428914,165.896062 18.2923133,165.932155 18.0964696,166.169952 L18.0964696,166.169952 L17.3812508,167.038452 C17.1821258,167.28028 17.2188289,167.638171 17.4630477,167.834437 C18.8310008,168.933749 20.2590477,170.079655 20.7877508,170.499984 C21.8212508,171.326062 23.5947664,173.118421 25.6315789,173.118421 C27.6568133,173.118421 29.4113914,171.350437 30.4754071,170.499984 C30.9306805,170.13803 31.992855,169.286234 33.1202638,168.380764 L33.1202638,168.380764 L33.5734226,168.016747 L33.8002039,167.83453 C34.0444227,167.638312 34.0811727,167.280374 33.8820008,167.038546 L33.8820008,167.038546 Z" id="icon-mail"></path>
            </g>
        </g>
    </g>
</svg>