<?xml version="1.0" encoding="UTF-8"?>
<svg width="154px" height="557px" viewBox="0 0 154 557" version="1.1" xmlns="http://www.w3.org/2000/svg" xmlns:xlink="http://www.w3.org/1999/xlink">
    <title>mivo-logo-rotated</title>
    <defs>
        <filter color-interpolation-filters="auto" id="filter-1">
            <feColorMatrix in="SourceGraphic" type="matrix" values="0 0 0 0 0.970279 0 0 0 0 0.970279 0 0 0 0 0.970279 0 0 0 1.000000 0"></feColorMatrix>
        </filter>
    </defs>
    <g id="Page-6" stroke="none" stroke-width="1" fill="none" fill-rule="evenodd">
        <g id="mivo-logo-rotated" transform="translate(-209.000000, -3632.000000)" filter="url(#filter-1)">
            <g transform="translate(286.000000, 3910.250000) rotate(-90.000000) translate(-286.000000, -3910.250000) translate(7.750000, 3833.250000)">
                <path d="M479.5,-4.54747351e-13 C522.024753,-4.54747351e-13 556.5,34.47349 556.5,76.9988682 C556.5,119.52651 522.024753,154 479.5,154 C436.975247,154 402.5,119.52651 402.5,76.9988682 C402.5,34.47349 436.975247,-4.54747351e-13 479.5,-4.54747351e-13 Z M479.5,32.0830504 C454.733508,32.0830504 434.582579,52.2320119 434.582579,76.9988682 C434.582579,101.767988 454.733508,121.91695 479.5,121.91695 C504.266492,121.91695 524.417421,101.767988 524.417421,76.9988682 C524.417421,52.2320119 504.266492,32.0830504 479.5,32.0830504 Z" id="Combined-Shape-Copy" fill="#0C6CED"></path>
                <path d="M184.821995,3.5 L168,3.5 L203.111076,136.435715 C205.304006,144.729694 212.712019,150.5 221.178005,150.5 L238,150.5 L202.888924,17.5665159 C200.698193,9.27030617 193.287981,3.5 184.821995,3.5" id="Fill-4-Copy" fill="#0C6CED"></path>
                <path d="M389.180204,3.5 C380.712019,3.5 373.301807,9.27030617 371.111076,17.5665159 L336,150.5 L352.824195,150.5 C361.287981,150.5 368.698193,144.729694 370.891123,136.435715 L406,3.5 L389.180204,3.5 Z" id="Fill-6-Copy" fill="#0C6CED"></path>
                <path d="M121.821995,3.5 L105,3.5 L140.111076,136.435715 C142.304006,144.729694 149.712019,150.5 158.178005,150.5 L175,150.5 L139.888924,17.5665159 C137.698193,9.27030617 130.287981,3.5 121.821995,3.5" id="Fill-8-Copy" fill="#0C6CED"></path>
                <path d="M338.588579,40.3137618 C337.830203,37.5490604 335.264975,35.6255958 332.334264,35.6255958 L308.438579,35.6255958 C305.510152,35.6255958 302.944924,37.5490604 302.184264,40.3137618 L288.010406,91.9884635 L267.732995,18.064498 C265.457868,9.77039376 257.762183,4 248.970051,4 L231.5,4 L267.96599,136.937733 C270.241117,145.234069 277.936802,151 286.728934,151 L294.262437,151 C299.820051,151 304.683249,147.521251 306.467259,142.447054 L322.000254,85.8253438 C323.517005,80.2937096 328.647462,76.4490118 334.508883,76.4490118 L348.5,76.4490118 L338.588579,40.3137618 Z" id="Fill-10-Copy" fill="#0C6CED"></path>
                <path d="M87.2847137,69.6758982 L71.6276815,13.0550479 C69.826858,7.98092715 64.9264072,4.5 59.3212864,4.5 L36.7004557,4.5 L0.451397765,135.574758 C-1.76854327,143.609898 4.47907087,151.5 13.0640711,151.5 L28.6865607,151.5 L53.018404,63.5106407 L67.3098501,115.186789 C68.0743941,117.951449 70.6604873,119.872653 73.6127325,119.872653 L97.7027773,119.872653 C100.657325,119.872653 103.243418,117.951449 104.007962,115.186789 L114,79.0520879 L99.8950842,79.0520879 C93.985988,79.0520879 88.8138018,75.2074485 87.2847137,69.6758982" id="Fill-12-Copy" fill="#0C6CED"></path>
            </g>
        </g>
    </g>
</svg>