<?xml version="1.0" encoding="UTF-8"?>
<svg width="166px" height="46px" viewBox="0 0 166 46" version="1.1" xmlns="http://www.w3.org/2000/svg" xmlns:xlink="http://www.w3.org/1999/xlink">
    <title>Mivo-logo-header</title>
    <g id="Page-6" stroke="none" stroke-width="1" fill="none" fill-rule="evenodd">
        <g id="MIWO-Copy" transform="translate(-1087.000000, -30.000000)" fill="#FFFFFF">
            <g id="Mivo-logo-header" transform="translate(1087.000000, 30.000000)">
                <path d="M143,0 C155.702199,0 166,10.2972762 166,22.9996619 C166,35.7027238 155.702199,46 143,46 C130.297801,46 120,35.7027238 120,22.9996619 C120,10.2972762 130.297801,0 143,0 Z M143,9.58324881 C135.602217,9.58324881 129.583108,15.6017698 129.583108,22.9996619 C129.583108,30.3982302 135.602217,36.4167512 143,36.4167512 C150.397783,36.4167512 156.416892,30.3982302 156.416892,22.9996619 C156.416892,15.6017698 150.397783,9.58324881 143,9.58324881 Z" id="Combined-Shape-Copy"></path>
                <path d="M55.0465986,1 L50,1 L60.5333229,40.7902822 C61.1912019,43.2728335 63.4136057,45 65.9534014,45 L71,45 L60.4666771,5.21038571 C59.809458,2.72716647 57.5863943,1 55.0465986,1" id="Fill-4-Copy"></path>
                <path d="M115.954061,1 C113.413606,1 111.190542,2.72716647 110.533323,5.21038571 L100,45 L105.047258,45 C107.586394,45 109.809458,43.2728335 110.467337,40.7902822 L121,1 L115.954061,1 Z" id="Fill-6-Copy"></path>
                <path d="M36.0465986,1 L31,1 L41.5333229,40.7902822 C42.1912019,43.2728335 44.4136057,45 46.9534014,45 L52,45 L41.4666771,5.21038571 C40.809458,2.72716647 38.5863943,1 36.0465986,1" id="Fill-8-Copy"></path>
                <path d="M101.035045,11.8694253 C100.80818,11.0418956 100.040804,10.4661647 99.1640961,10.4661647 L92.0158141,10.4661647 C91.1397891,10.4661647 90.3724131,11.0418956 90.1448653,11.8694253 L85.9048223,27.336683 L79.8389301,5.20978172 C79.1583366,2.72719269 76.8562085,1 74.2260836,1 L69,1 L79.9086294,40.7908862 C80.589223,43.2741431 82.891351,45 85.521476,45 L87.7750879,45 C89.437622,45 90.8924248,43.9587419 91.4261031,42.4399344 L96.0727255,25.4919396 C96.5264545,23.8362124 98.0612066,22.6854185 99.8146232,22.6854185 L104,22.6854185 L101.035045,11.8694253 Z" id="Fill-10-Copy"></path>
                <path d="M26.032283,20.5084321 L21.3626418,3.56069461 C20.8255541,2.04191017 19.3640162,1 17.6923135,1 L10.9457499,1 L0.134627404,40.233261 C-0.527460273,42.638337 1.33586324,45 3.89630189,45 L8.5556409,45 L15.8125065,18.6630489 L20.0748676,34.1307397 C20.3028895,34.9582568 21.0741804,35.5333111 21.9546746,35.5333111 L29.1394248,35.5333111 C30.0206058,35.5333111 30.7918967,34.9582568 31.0199186,34.1307397 L34,23.3149107 L29.7932707,23.3149107 C28.0309087,23.3149107 26.4883268,22.1641342 26.032283,20.5084321" id="Fill-12-Copy"></path>
            </g>
        </g>
    </g>
</svg>