<?xml version="1.0" encoding="UTF-8"?>
<svg width="46px" height="40px" viewBox="0 0 46 40" version="1.1" xmlns="http://www.w3.org/2000/svg" xmlns:xlink="http://www.w3.org/1999/xlink">
    <title>money-2</title>
    <defs>
        <linearGradient x1="-1.63113318%" y1="55.0020106%" x2="100%" y2="55.0020106%" id="linearGradient-1">
            <stop stop-color="#36B3FF" offset="0%"></stop>
            <stop stop-color="#6A19FE" offset="100%"></stop>
        </linearGradient>
    </defs>
    <g id="Page-7" stroke="none" stroke-width="1" fill="none" fill-rule="evenodd">
        <g id="MIWO-Update" transform="translate(-903.000000, -1892.000000)" fill="url(#linearGradient-1)" fill-rule="nonzero">
            <g id="money-2" transform="translate(903.900000, 1892.000000)">
                <path d="M24.3,40 C20.2333333,40 16.5083333,38.8 13.125,36.4 C9.74166667,34 7.25,30.9833333 5.65,27.35 L5.65,34.6 L4.1,34.6 L4.1,24.6 L14.1,24.6 L14.1,26.15 L6.85,26.15 C8.18333333,29.6833333 10.4916667,32.6166667 13.775,34.95 C17.0583333,37.2833333 20.5666667,38.45 24.3,38.45 C26.7333333,38.45 29.0333333,38.0083333 31.2,37.125 C33.3666667,36.2416667 35.275,35.0166667 36.925,33.45 C38.575,31.8833333 39.9166667,30.0333333 40.95,27.9 C41.9833333,25.7666667 42.5666667,23.4666667 42.7,21 L44.25,21 C44.1166667,23.6333333 43.5,26.1083333 42.4,28.425 C41.3,30.7416667 39.8666667,32.7583333 38.1,34.475 C36.3333333,36.1916667 34.2583333,37.5416667 31.875,38.525 C29.4916667,39.5083333 26.9666667,40 24.3,40 Z M23.45,33.4 L23.45,30.9 C22.1166667,30.5666667 20.9583333,30.0416667 19.975,29.325 C18.9916667,28.6083333 18.1666667,27.5833333 17.5,26.25 L18.95,25.65 C19.4833333,26.8833333 20.2583333,27.8416667 21.275,28.525 C22.2916667,29.2083333 23.4,29.55 24.6,29.55 C25.9,29.55 27.0833333,29.2083333 28.15,28.525 C29.2166667,27.8416667 29.75,26.8 29.75,25.4 C29.75,24.2333333 29.3833333,23.3 28.65,22.6 C27.9166667,21.9 26.4333333,21.1166667 24.2,20.25 C22.0333333,19.4166667 20.4833333,18.5666667 19.55,17.7 C18.6166667,16.8333333 18.15,15.65 18.15,14.15 C18.15,12.9166667 18.6083333,11.8083333 19.525,10.825 C20.4416667,9.84166667 21.7833333,9.23333333 23.55,9 L23.55,6.6 L25.15,6.6 L25.15,9 C26.2166667,9.06666667 27.1916667,9.38333333 28.075,9.95 C28.9583333,10.5166667 29.6833333,11.2833333 30.25,12.25 L28.9,12.85 C28.3666667,12.0833333 27.7333333,11.475 27,11.025 C26.2666667,10.575 25.4,10.35 24.4,10.35 C23.0333333,10.35 21.9166667,10.7166667 21.05,11.45 C20.1833333,12.1833333 19.75,13.0833333 19.75,14.15 C19.75,15.2833333 20.075,16.15 20.725,16.75 C21.375,17.35 22.8,18.0666667 25,18.9 C27.3666667,19.8333333 29.0083333,20.7666667 29.925,21.7 C30.8416667,22.6333333 31.3,23.8666667 31.3,25.4 C31.3,26.3333333 31.125,27.1333333 30.775,27.8 C30.425,28.4666667 29.9583333,29.0333333 29.375,29.5 C28.7916667,29.9666667 28.125,30.325 27.375,30.575 C26.625,30.825 25.85,30.9666667 25.05,31 L25.05,33.4 L23.45,33.4 Z M7.76494919,8.78795222 C8.61798243,7.51145071 9.5963327,6.35713331 10.7,5.325 C12.5,3.64166667 14.5666667,2.33333333 16.9,1.4 C19.2333333,0.466666667 21.7,0 24.3,0 C28.3,0 32.025,1.2 35.475,3.6 C38.925,6 41.4166667,9.06666667 42.95,12.8 L42.95,5.4 L44.5,5.4 L44.5,15.4 L34.5,15.4 L34.5,13.85 L41.75,13.85 C40.4833333,10.45 38.2166667,7.55 34.95,5.15 C31.6833333,2.75 28.1333333,1.55 24.3,1.55 C21.9666667,1.55 19.7166667,1.975 17.55,2.825 C15.3833333,3.675 13.4666667,4.875 11.8,6.425 C10.6919347,7.45550072 9.71647276,8.61492135 8.87361415,9.90326189 M0,16.2 L10,16.2 L10,17.8 L0,17.8 L0,16.2 Z M4.2,22 L4.2,12 L5.8,12 L5.8,22 L4.2,22 Z" id="Shape"></path>
            </g>
        </g>
    </g>
</svg>