<?xml version="1.0" encoding="UTF-8"?>
<svg width="49px" height="38px" viewBox="0 0 49 38" version="1.1" xmlns="http://www.w3.org/2000/svg" xmlns:xlink="http://www.w3.org/1999/xlink">
    <title>credit_card_FILL0_wght100_GRAD0_opsz48 Copy</title>
    <defs>
        <linearGradient x1="-1.63113318%" y1="55.0020106%" x2="100%" y2="55.0020106%" id="linearGradient-1">
            <stop stop-color="#36B3FF" offset="0%"></stop>
            <stop stop-color="#6A19FE" offset="100%"></stop>
        </linearGradient>
    </defs>
    <g id="Page-6" stroke="none" stroke-width="1" fill="none" fill-rule="evenodd">
        <g id="iPhone-8" transform="translate(-48.000000, -1255.000000)" fill="url(#linearGradient-1)" fill-rule="nonzero">
            <g id="credit_card_FILL0_wght100_GRAD0_opsz48-Copy" transform="translate(48.000000, 1255.000000)">
                <path d="M49,3.82835821 L49,34.1716418 C49,35.2587065 48.6362548,36.1685323 47.9087644,36.9011194 C47.1812739,37.6337065 46.2777778,38 45.1982759,38 L3.80172414,38 C2.72222222,38 1.81872605,37.6337065 1.09123563,36.9011194 C0.363745211,36.1685323 0,35.2587065 0,34.1716418 L0,3.82835821 C0,2.74129353 0.363745211,1.83146766 1.09123563,1.0988806 C1.81872605,0.366293532 2.72222222,0 3.80172414,0 L45.1982759,0 C46.2777778,0 47.1812739,0.366293532 47.9087644,1.0988806 C48.6362548,1.83146766 49,2.74129353 49,3.82835821 Z M1.54885057,10.8470149 L47.4511494,10.8470149 L47.4511494,3.82835821 C47.4511494,3.26119403 47.2164751,2.74129353 46.7471264,2.26865672 C46.2777778,1.7960199 45.7614943,1.55970149 45.1982759,1.55970149 L3.80172414,1.55970149 C3.23850575,1.55970149 2.72222222,1.7960199 2.25287356,2.26865672 C1.7835249,2.74129353 1.54885057,3.26119403 1.54885057,3.82835821 L1.54885057,10.8470149 Z M1.54885057,15.5261194 L1.54885057,34.1716418 C1.54885057,34.738806 1.7835249,35.2587065 2.25287356,35.7313433 C2.72222222,36.2039801 3.23850575,36.4402985 3.80172414,36.4402985 L45.1982759,36.4402985 C45.7614943,36.4402985 46.2777778,36.2039801 46.7471264,35.7313433 C47.2164751,35.2587065 47.4511494,34.738806 47.4511494,34.1716418 L47.4511494,15.5261194 L1.54885057,15.5261194 Z M1.54885057,36.4402985 L1.54885057,1.55970149 L1.54885057,36.4402985 Z" id="Shape"></path>
            </g>
        </g>
    </g>
</svg>