<?xml version="1.0" encoding="UTF-8"?>
<svg width="44px" height="48px" viewBox="0 0 44 48" version="1.1" xmlns="http://www.w3.org/2000/svg" xmlns:xlink="http://www.w3.org/1999/xlink">
    <title>receipt_long_FILL0_wght100_GRAD0_opsz48</title>
    <defs>
        <linearGradient x1="-1.63113318%" y1="55.0020106%" x2="100%" y2="55.0020106%" id="linearGradient-1">
            <stop stop-color="#36B3FF" offset="0%"></stop>
            <stop stop-color="#6A19FE" offset="100%"></stop>
        </linearGradient>
    </defs>
    <g id="Page-6" stroke="none" stroke-width="1" fill="none" fill-rule="evenodd">
        <g id="iPhone-8" transform="translate(-51.000000, -1879.000000)" fill="url(#linearGradient-1)" fill-rule="nonzero">
            <g id="receipt_long_FILL0_wght100_GRAD0_opsz48" transform="translate(51.000000, 1879.000000)">
                <path d="M4.5566343,48 C3.27508091,48 2.19525351,47.5621302 1.3171521,46.6863905 C0.439050701,45.8106509 0,44.7337278 0,43.4556213 L0,38.556213 L8.68608414,38.556213 L8.68608414,0 L12.1035599,1.98816568 L15.6634304,0 L19.223301,1.98816568 L22.7831715,0 L26.3430421,1.98816568 L29.9029126,0 L33.4627832,1.98816568 L37.0226537,0 L40.5825243,1.98816568 L44,0 L44,43.4556213 C44,44.7337278 43.5609493,45.8106509 42.6828479,46.6863905 C41.8047465,47.5621302 40.7249191,48 39.4433657,48 L4.5566343,48 Z M39.5145631,46.4378698 C40.3214671,46.4378698 41.0097087,46.1538462 41.579288,45.5857988 C42.1488673,45.0177515 42.433657,44.3076923 42.433657,43.4556213 L42.433657,2.98224852 L10.2524272,2.98224852 L10.2524272,38.556213 L36.5242718,38.556213 L36.5242718,43.4556213 C36.5242718,44.3076923 36.8090615,45.0177515 37.3786408,45.5857988 C37.9482201,46.1538462 38.6601942,46.4378698 39.5145631,46.4378698 L39.5145631,46.4378698 Z M14.8090615,12.4260355 L14.8090615,10.8639053 L29.4757282,10.8639053 L29.4757282,12.4260355 L14.8090615,12.4260355 Z M14.8090615,21.3017751 L14.8090615,19.739645 L29.4757282,19.739645 L29.4757282,21.3017751 L14.8090615,21.3017751 Z M36.02589,13.4201183 C35.5512406,13.4201183 35.1359223,13.2426036 34.7799353,12.887574 C34.4239482,12.5325444 34.2459547,12.1183432 34.2459547,11.6449704 C34.2459547,11.1715976 34.4239482,10.7573964 34.7799353,10.4023669 C35.1359223,10.0473373 35.5512406,9.86982249 36.02589,9.86982249 C36.5005394,9.86982249 36.9158576,10.0473373 37.2718447,10.4023669 C37.6278317,10.7573964 37.8058252,11.1715976 37.8058252,11.6449704 C37.8058252,12.1183432 37.6278317,12.5325444 37.2718447,12.887574 C36.9158576,13.2426036 36.5005394,13.4201183 36.02589,13.4201183 Z M36.02589,22.1538462 C35.5512406,22.1538462 35.1359223,21.9763314 34.7799353,21.6213018 C34.4239482,21.2662722 34.2459547,20.852071 34.2459547,20.3786982 C34.2459547,19.9053254 34.4239482,19.4911243 34.7799353,19.1360947 C35.1359223,18.7810651 35.5512406,18.6035503 36.02589,18.6035503 C36.5005394,18.6035503 36.9158576,18.7810651 37.2718447,19.1360947 C37.6278317,19.4911243 37.8058252,19.9053254 37.8058252,20.3786982 C37.8058252,20.852071 37.6278317,21.2662722 37.2718447,21.6213018 C36.9158576,21.9763314 36.5005394,22.1538462 36.02589,22.1538462 Z M4.48543689,46.4378698 L34.9579288,46.4378698 L34.9579288,40.1183432 L1.56634304,40.1183432 L1.56634304,43.4556213 C1.56634304,44.3076923 1.85113269,45.0177515 2.42071197,45.5857988 C2.99029126,46.1538462 3.6785329,46.4378698 4.48543689,46.4378698 Z M1.56634304,46.4378698 L1.56634304,40.1183432 L1.56634304,46.4378698 Z" id="Shape"></path>
            </g>
        </g>
    </g>
</svg>