<svg width="33" height="55" viewBox="0 0 33 55" xmlns="http://www.w3.org/2000/svg">
    <defs>
        <linearGradient x1="-1.631%" y1="55.002%" x2="100%" y2="55.002%" id="z48hw3n55a">
            <stop stop-color="#36B3FF" offset="0%"/>
            <stop stop-color="#6A19FE" offset="100%"/>
        </linearGradient>
    </defs>
    <path d="M3.794 55c-1.077 0-1.98-.366-2.705-1.099C.363 53.17 0 52.26 0 51.173V3.827C0 2.741.363 1.831 1.089 1.1 1.815.366 2.717 0 3.794 0h24.448c1.078 0 1.98.366 2.705 1.099.726.732 1.09 1.642 1.09 2.728v47.346c0 1.086-.364 1.996-1.09 2.728-.726.733-1.627 1.099-2.705 1.099H3.794zM1.546 43.872v7.3c0 .568.234 1.087.702 1.56.469.472.984.709 1.546.709h24.448c.563 0 1.078-.237 1.546-.709.468-.473.703-.992.703-1.56v-7.3H1.546zm14.472 6.521c.468 0 .878-.165 1.23-.496.35-.33.526-.756.526-1.276 0-.472-.175-.886-.526-1.24-.352-.355-.762-.532-1.23-.532-.468 0-.878.177-1.23.532-.35.354-.526.768-.526 1.24 0 .52.175.945.527 1.276.35.33.76.496 1.23.496zm-14.472-8.08H30.49V7.583H1.546v34.73zm0-36.289H30.49V3.827c0-.567-.235-1.086-.703-1.559-.468-.472-.983-.709-1.546-.709H3.794c-.562 0-1.077.237-1.546.709-.468.473-.702.992-.702 1.56v2.196zm0 37.848v9.569-9.568zm0-37.848V1.56v4.465z" fill="url(#z48hw3n55a)" fill-rule="nonzero"/>
</svg>
